<svg xmlns="http://www.w3.org/2000/svg" xmlns:xlink="http://www.w3.org/1999/xlink" viewBox="315 242 415 415" width="100%" height="100%">
  <defs>
    <linearGradient id="gradient_0" gradientUnits="userSpaceOnUse" x1="659.87115" y1="302.43765" x2="384.90286" y2="594.61475">
      <stop offset="0" stop-color="#49CC88"/>
      <stop offset="1" stop-color="#357C93"/>
    </linearGradient>
  </defs>
  <path fill="url(#gradient_0)" d="M518.954 247.208C630.279 245.183 722.164 333.794 724.18 445.119C726.195 556.444 637.576 648.322 526.251 650.327C414.939 652.332 323.075 563.727 321.06 452.416C319.046 341.105 407.643 249.233 518.954 247.208Z"/>
  <path fill="#F1F0F0" d="M518.886 302.631C553.837 300.121 545.48 351.46 533.944 369.655C526.355 381.626 516.025 394.555 501.511 398.202C483.499 402.728 475.931 393.829 471.785 378.155C475.925 375.485 479.521 373.489 483.817 371.136C484.27 372.884 484.804 374.61 485.416 376.308C489.29 387.056 495.269 387.011 504.543 382.982C521.689 370.548 533.49 349.147 530.634 327.429C529.806 321.141 524.089 314.366 517.146 316.439C504.756 320.139 496.741 332.853 490.478 343.332C485.086 345.042 480.22 346.988 474.963 349.052C481.946 327.944 496.003 307.493 518.886 302.631Z"/>
  <path fill="#F1F0F0" d="M535.68 500.499C543.77 499.934 540.366 503.749 544.807 508.126C546.224 509.145 551.67 508.845 552.227 510.695C554.96 519.769 553.649 531.283 553.043 540.691C552.986 541.581 551.719 542.357 551.009 542.665C546.611 539.141 551.391 516.764 547.07 513.147L546.024 513.466C541.454 518.466 546.58 534.973 542.115 537.618C535.715 535.979 542.58 513.036 537.489 505.741L536.657 505.638C529.936 510.659 537.712 534.719 532.322 537.398C524.798 534.607 534.17 509.689 525.843 510.554C521.476 514.858 526.973 534.667 522.392 538.786L521.175 538.647C517.862 534.551 521.757 521.92 517.185 519.397C516.746 519.638 516.38 519.805 516.016 520.179C512.507 523.78 515.325 556.038 515.556 562.398C517.917 566.618 520.155 568.918 523.497 572.34L523.663 581.909C530.939 581.961 538.215 581.901 545.489 581.728C545.503 577.849 545.391 574.83 546.115 571.008L551.658 564.232C554.616 560.53 565.602 548.315 564.319 543.973C560.463 542.836 556.247 549.965 553.553 552.021C551.277 553.758 547.372 554.866 545.33 556.538C541.582 559.609 538.306 563.423 534.596 566.71C529.91 562.531 524.83 558.373 521.728 552.725C518.982 547.724 521.454 542.918 526.549 540.855C529.472 539.671 532.399 541.168 535.116 542.357C544.728 539.711 545.772 540.748 549.403 549.935C553.306 545.727 556.904 540.69 562.568 538.97C564.823 537.839 570.094 540.674 569.878 543.414C569.018 554.306 555.739 565.335 550.087 573.415L549.996 586.511L519.478 586.502L519.473 574.76C515.5 570.211 511.556 565.438 510.777 559.214C510.072 553.574 509.079 520.363 511.93 517.104C513.892 514.861 517.304 514.923 520.044 514.622C521.692 507.708 521.424 506.633 528.981 506.413C531.639 503.445 532.439 502.637 535.68 500.499Z"/>
  <path fill="#42988E" d="M527.598 544.811C531.186 545.008 532.457 547.175 535.051 549.825C537.36 547.031 539.743 543.679 543.517 546.658C545.183 550.384 543.512 552.113 541.039 554.729C538.925 556.88 536.976 558.949 534.634 560.857C529.439 556.08 522.313 551.963 527.598 544.811Z"/>
  <path fill="#F1F0F0" d="M517.942 345.216L524.079 345.079C522.499 349.389 520.981 353.511 519.6 357.898C508.164 359.023 499.993 359.104 489.039 363.28C457.592 375.271 440.398 398.366 431.235 429.464C429.848 428.783 428.387 428.15 426.974 427.514C424.012 427.323 421.039 427.499 418.068 427.599C431.911 377.16 465.357 348.03 517.942 345.216Z"/>
  <path fill="#F1F0F0" d="M421.478 453.466C431.239 453.884 430.902 463.856 432.764 471.583C435.047 481.056 438.898 490.082 444.157 498.286C457.692 519.529 479.193 534.444 503.831 539.683C504.179 542.749 505.42 549.898 503.542 552.441C503.08 553.067 502.697 552.828 501.616 552.872C458.314 545.066 422.314 505.246 417.002 461.716C416.491 457.532 418.265 455.519 421.478 453.466Z"/>
  <path fill="#F1F0F0" d="M547.836 348.834C585.852 361.465 612.922 385.073 623.034 425.11C624.928 432.611 628.231 438.08 621.655 443.984C613.064 444.16 612.284 439.711 610.815 432.319C603.675 396.369 577.981 371.877 543.737 361.559C545.528 356.894 546.515 353.667 547.836 348.834Z"/>
  <path fill="#F1F0F0" d="M440.795 332.924C449.988 333.875 452.007 340.775 445.391 346.302C427.71 361.071 413.975 378.778 405.942 400.588C403.932 406.044 401.976 413.642 397.32 417.578C396.11 417.549 394.179 417.526 393.049 417.22C391.387 416.764 389.982 415.652 389.159 414.138C387.619 411.332 388.154 407.761 388.984 404.836C395.539 381.75 419.849 344.841 440.795 332.924Z"/>
  <path fill="#F1F0F0" d="M421.058 433.156C437.254 433.745 451.354 448.715 454.133 464.652C454.604 467.352 451.413 473.128 448.373 471.956C436.762 467.483 437.889 449.325 423.392 447.218C412.789 449.406 410.576 455.173 405.998 464.17C404.356 467.399 399.964 475.841 395.36 472.402C386.666 465.909 395.192 454.364 399.415 447.842C404.629 440.244 411.86 434.725 421.058 433.156Z"/>
  <path fill="#F1F0F0" d="M642.29 424.428C647.936 424.672 652.533 427.558 650.595 433.567C639.77 467.119 612.853 476.044 591.991 444.393C589.898 440.242 588.797 436.848 587.534 432.407C596.902 414.473 603.224 437.902 608.527 444.51C616.085 453.931 626.64 450.767 632.316 441.219C635.756 435.433 636.601 429.566 641.79 424.871L642.29 424.428Z"/>
  <path fill="#F1F0F0" d="M612.435 468.804C618.363 470.158 619.84 469.888 625.931 469.384C620.059 501.2 604.955 521.649 580.113 541.376L576.299 544.165C574.123 537.546 573.721 537.059 567.696 533.525C592.876 515.845 605.524 499.005 612.435 468.804Z"/>
  <path fill="#F1F0F0" d="M563.593 489.467C567.526 489.401 568.534 490.07 572.078 491.671C577.522 489.496 586.714 487.807 586.784 496.612C586.835 503.207 582.157 507.279 577.762 511.474L572.468 516.609C566.682 512.656 556.503 505.023 557.671 496.972C558.208 493.265 560.798 491.54 563.593 489.467Z"/>
  <path fill="#42988E" d="M563.494 493.878C564.25 493.864 565.006 493.897 565.758 493.977C568.816 494.324 569.96 496.365 571.938 498.731C574.717 496.253 580.109 491.437 582.831 496.685C582.901 500.047 581.484 501.323 579.4 503.892L572.237 510.969C566.157 506.185 559.83 502.125 563.494 493.878Z"/>
  <path fill="#F1F0F0" d="M641.767 390.955C643.035 391.348 643.074 391.461 644.184 392.23C645.427 394.313 644.666 395.473 644.961 397.863C646.39 399.187 648.149 398.586 651.073 399.325C652.16 400.476 651.869 399.802 651.9 401.446C650.148 403.121 647.654 402.683 645.148 402.639C644.877 406.099 644.831 407.484 643.878 410.834C639.714 409.209 641.8 406.603 640.78 403.083C639.263 402.128 637.339 403.001 634.401 402.119C633.357 401.026 633.634 401.665 633.581 400.124C635.368 398.235 638.792 398.595 641.266 398.583C641.29 395.614 641.267 393.934 641.767 390.955Z"/>
</svg>
